# xmcd CD database file
#
# Track frame offsets:
#	150
#	7963
#	26977
#	47162
#	68776
#	91514
#	96157
#	114223
#	133699
#	152586
#	170436
#	176196
#	195394
#	213219
#	229235
#	235083
#	249199
#	264520
#	279361
#	300017
#
# Disc length: 4217 seconds
#
# Revision: 0
# Processed by: cddbd v1.5.1PL2 Copyright (c) Steve Scherf et al.
# Submitted via: CDex 1.51
#
DISCID=f5107714
DTITLE=Guru  - Jazzmatazz Vol. 2-New Reality
DYEAR=1995
DGENRE=Jazz
TTITLE0=Intro (Light It Up) Jazzalude I New Reality Style
TTITLE1=Lifesaver
TTITLE2=Living In This World
TTITLE3=Looking Through Darkness
TTITLE4=Skit A (Interview) Watch What You Say
TTITLE5=Jazzalude II Defining Purpose
TTITLE6=For You
TTITLE7=Insert A (Mental Relaxation) Medicine
TTITLE8=Lost Souls
TTITLE9=Insert B (The Real Deal) Nobody Knows
TTITLE10=Jazzalude III Hip Hop As A Way Of Life
TTITLE11=Respect The Architect
TTITLE12=Feel The Music
TTITLE13=Young Ladies
TTITLE14=The Traveler
TTITLE15=Jazzalude IV Maintaining Focus
TTITLE16=Count Your Blessings
TTITLE17=Choice Of Weapons
TTITLE18=Something In The Past
TTITLE19=Skit B (Alot On My Mind) Revelation
EXTD=YEAR: 1995
EXTT0=
EXTT1=
EXTT2=
EXTT3=
EXTT4=
EXTT5=
EXTT6=
EXTT7=
EXTT8=
EXTT9=
EXTT10=
EXTT11=
EXTT12=
EXTT13=
EXTT14=
EXTT15=
EXTT16=
EXTT17=
EXTT18=
EXTT19=
PLAYORDER=
